<?xml version="1.0" encoding="UTF-8"?>
<svg version="1.1" xmlns="http://www.w3.org/2000/svg" width="512" height="512">
<path d="M0 0 C2.5625 2.0625 2.5625 2.0625 5 5 C14.85398624 15.21804977 27.71882475 19.54502783 40.99316406 23.41162109 C71.27635841 32.29027053 71.27635841 32.29027053 79.328125 43.91796875 C80.79107996 46.0151795 81.62598469 47.00114816 84 48 C87.88067647 47.53354942 91.50139837 46.48535434 95.23046875 45.36328125 C100.52184235 43.77979702 105.87969496 42.78053044 111.3125 41.8125 C112.20646484 41.64637207 113.10042969 41.48024414 114.02148438 41.30908203 C144.71518789 35.79257204 178.87672224 37.26901002 208.69458008 46.19384766 C209.5945874 46.45601074 210.49459473 46.71817383 211.421875 46.98828125 C212.21174805 47.23102783 213.00162109 47.47377441 213.81542969 47.72387695 C216.53901928 48.0681304 217.71547357 47.45891651 220 46 C221.57293895 44.51942181 221.57293895 44.51942181 223.0625 42.8125 C233.23498707 32.37973607 246.80376832 27.56256565 260.4375 23.5 C275.75442751 18.93194303 289.98420903 14.24669128 300 1 C302.29986731 -0.14993366 303.81469088 -0.2316929 306.375 -0.3125 C307.14585937 -0.34988281 307.91671875 -0.38726563 308.7109375 -0.42578125 C311.96253135 0.1790374 313.00159123 1.39061275 315 4 C326.14765252 33.27666318 326.05450678 73.06918373 314 102 C308.900674 113.10094561 300.78867987 121.79878623 291 129 C292.49987323 132.80028394 294.02872522 136.58828543 295.5625 140.375 C295.98080078 141.43589844 296.39910156 142.49679688 296.83007812 143.58984375 C301.92221117 156.07131273 307.46382022 164.36769645 319.9375 169.75 C320.948125 170.1625 321.95875 170.575 323 171 C324 172 324 172 324.375 174.7890625 C324 178 324 178 321.8125 180.3359375 C320.884375 181.00882813 319.95625 181.68171875 319 182.375 C318.071875 183.06335938 317.14375 183.75171875 316.1875 184.4609375 C315.465625 184.96882812 314.74375 185.47671875 314 186 C314.825 186.13051758 315.65 186.26103516 316.5 186.39550781 C355.08599509 192.54299754 355.08599509 192.54299754 362 196 C362.75 198.875 362.75 198.875 363 202 C361 205 361 205 358.69189453 205.74316406 C355.82960665 206.01625737 353.7267562 205.74681472 350.9296875 205.109375 C349.95950684 204.89563232 348.98932617 204.68188965 347.98974609 204.46166992 C346.96187988 204.22681885 345.93401367 203.99196777 344.875 203.75 C337.06610328 202.04376972 329.27170693 200.43293791 321.375 199.1875 C320.61300293 199.06407227 319.85100586 198.94064453 319.06591797 198.81347656 C315.00749871 198.1899483 311.10482077 197.87698487 307 198 C307.84304688 198.32613281 308.68609375 198.65226563 309.5546875 198.98828125 C310.65039062 199.42527344 311.74609375 199.86226562 312.875 200.3125 C313.96554687 200.74175781 315.05609375 201.17101562 316.1796875 201.61328125 C319 203 319 203 321 206 C320.71692308 210.00811181 319.42486226 212.13759627 316.75 215.0625 C315.87601562 216.03896484 315.87601562 216.03896484 314.984375 217.03515625 C312.78513181 219.21275335 310.4458313 221.10658922 308 223 C309.15371094 223.43828125 310.30742187 223.8765625 311.49609375 224.328125 C321.69096171 228.26888251 331.642514 232.58757855 341.5 237.3125 C342.57950928 237.82780273 343.65901855 238.34310547 344.77124023 238.87402344 C354.09548348 243.39352155 354.09548348 243.39352155 357 246 C357.375 249.0625 357.375 249.0625 357 252 C355 254 355 254 352.14453125 254.4921875 C346.14632785 254.30372991 340.89612544 250.80750913 335.6875 248.125 C326.18377691 243.38747878 316.67348546 239.05737809 306.75 235.25 C305.67451904 234.83250488 304.59903809 234.41500977 303.4909668 233.98486328 C298.32817149 232.03900979 293.53054031 230.32884294 288 230 C287.34 230.33 286.68 230.66 286 231 C288.9546709 233.58533704 291.656032 235.31932265 295.25 236.8125 C298.49643989 238.40170962 298.88604453 238.74236154 300.4375 242.25 C299.59285437 249.48981969 293.72046076 253.52941007 288.375 258 C275.57280058 267.87157545 259.91514161 277.32727501 244 281 C244.42410156 281.66644531 244.84820312 282.33289063 245.28515625 283.01953125 C246.5286546 284.97360009 247.76930675 286.92948175 249.0078125 288.88671875 C250.23140792 290.79888649 251.4724437 292.70019122 252.7421875 294.58203125 C264.1724249 311.72738735 272.48342838 332.1989801 271.88671875 353.07421875 C271.85642578 354.15380859 271.82613281 355.23339844 271.79492188 356.34570312 C271.72290819 358.58598326 271.63154357 360.82571954 271.52148438 363.06445312 C271.19741161 368.7960546 271.19741161 368.7960546 273.35791016 373.88134766 C275.14826397 375.45660834 275.14826397 375.45660834 278 377 C289.98106819 358.9434256 295.67034582 336.76368089 297.3828125 315.33203125 C298.30396318 304.21732051 299.28106752 295.24272672 307.6875 287.125 C314.44577054 281.7715385 321.56557522 279.24289595 330.203125 279.62109375 C338.92554411 280.80276226 346.28025768 284.22969277 352 291 C357.27945181 298.71510913 358.9345868 306.39247918 357.40234375 315.5859375 C350.2934326 348.39533445 332.82695444 386.61522222 306.6875 408.5625 C303.79283651 411.3097988 303.06617273 412.5107557 302.5234375 416.5234375 C302.54949421 419.13431964 302.64212115 421.74537535 302.80078125 424.3515625 C303.62860404 439.51208181 295.39441125 451.32084548 285.9765625 462.375 C279.73298876 469.07308677 272.17824281 473.9315889 264.55297852 478.90600586 C262.83849023 480.0476096 262.83849023 480.0476096 261 482 C261.61875 482.721875 262.2375 483.44375 262.875 484.1875 C267.32634726 490.07898902 267.85701382 495.79473563 267 503 C264.80186989 507.55908467 262.54371285 509.86003245 258 512 C255.04744564 512.43855362 252.12668071 512.43049061 249.14575195 512.41992188 C248.26375626 512.42839142 247.38176056 512.43686096 246.47303772 512.44558716 C243.56130485 512.46895717 240.65010078 512.46997897 237.73828125 512.46875 C235.70671885 512.47585392 233.67515846 512.48355325 231.64360046 512.49182129 C227.3841698 512.50526783 223.12492446 512.5068351 218.86547852 512.50097656 C213.42602379 512.49509443 207.98746593 512.5256099 202.54818439 512.56609344 C198.35034962 512.59204187 194.15272836 512.59484111 189.95482445 512.59120178 C187.95069318 512.59288778 185.9465515 512.60247987 183.94249916 512.62034607 C172.06540626 512.71454318 162.88869406 512.74057838 153.375 504.8125 C152 503 152 503 152 501 C151.34 501.721875 150.68 502.44375 150 503.1875 C142.87247156 510.31502844 136.22499418 512.14767825 126.36352539 512.16113281 C125.4931514 512.16609772 124.6227774 512.17106262 123.72602844 512.17617798 C120.84989631 512.1907704 117.9738193 512.19759589 115.09765625 512.203125 C113.09752908 512.20887779 111.09740192 512.21463551 109.09727478 512.22039795 C104.90509789 512.23089888 100.71294014 512.23674784 96.52075195 512.24023438 C91.14940284 512.24572458 85.77830652 512.26976771 80.40703678 512.29820633 C76.27635456 512.3168276 72.14573339 512.32203799 68.01501274 512.32357025 C66.0346685 512.32659723 64.05432534 512.33462728 62.07402229 512.34775543 C59.30444168 512.36480906 56.53548095 512.36293763 53.76586914 512.35644531 C52.53991028 512.37026749 52.53991028 512.37026749 51.28918457 512.3843689 C45.39323529 512.34107131 42.21245137 510.96662344 37.75 507 C34.49686651 503.28213316 34.67258915 499.35230469 34.70703125 494.640625 C35.29495966 489.34143025 38.10222614 485.34666078 41 481 C40.33355469 480.59910156 39.66710937 480.19820313 38.98046875 479.78515625 C21.9959555 469.30939353 6.23585787 455.85425315 0.42358398 436.03442383 C-2.6389101 421.32562659 0.74894346 407.40214342 8.625 394.875 C13.76939485 387.59685047 19.84383546 379.73007753 27.32421875 374.81640625 C30.2823046 371.70285895 30.39541231 371.20874332 30.48046875 367.1484375 C30.40675805 365.2228925 30.30766085 363.29820518 30.1875 361.375 C29.38143764 333.64994981 37.90241129 308.1276757 55.21484375 286.390625 C57.15809429 284.0494501 57.15809429 284.0494501 58 281 C57.46375 280.87625 56.9275 280.7525 56.375 280.625 C35.5757952 275.15152505 16.99093307 261.99093307 2 247 C1.1875 243.875 1.1875 243.875 2 240 C4.92686771 237.81033435 7.93391025 236.15707 11.1796875 234.48046875 C14.0420047 233.15628563 14.0420047 233.15628563 16 231 C8.5143605 231.45477761 2.31354937 233.99821544 -4.5625 236.875 C-5.74038086 237.35880127 -6.91826172 237.84260254 -8.13183594 238.34106445 C-17.12460859 242.08483417 -25.91972642 246.17894387 -34.57641602 250.64599609 C-39.63910979 253.18780597 -43.3057118 254.81240499 -49 254 C-51 252 -51 252 -51.625 249.1875 C-51 246 -51 246 -49.57788086 244.78613281 C-43.84970107 241.37842144 -37.96182945 238.41081057 -31.9375 235.5625 C-30.93195068 235.08385498 -29.92640137 234.60520996 -28.89038086 234.11206055 C-21.04394327 230.4124254 -13.12407865 227.04171665 -5 224 C-8.23095329 220.69660381 -11.64314904 217.73021589 -15.1953125 214.78125 C-17.07091979 212.93000125 -18.04996598 211.44646065 -19 209 C-18.9375 206.4375 -18.9375 206.4375 -18 204 C-15.18490557 201.78204682 -12.14418974 200.64707952 -8.81640625 199.4140625 C-8.1004126 199.14803223 -7.38441895 198.88200195 -6.64672852 198.60791016 C-6.10330811 198.4072998 -5.5598877 198.20668945 -5 198 C-8.89689731 198.57635718 -12.79242135 199.16148025 -16.6875 199.75 C-18.44247803 200.01417725 -18.44247803 200.01417725 -20.23291016 200.28369141 C-28.71132132 201.58461164 -37.1231832 203.10121904 -45.4987793 204.95605469 C-46.300979 205.12266602 -47.10317871 205.28927734 -47.9296875 205.4609375 C-48.62304199 205.61353027 -49.31639648 205.76612305 -50.03076172 205.92333984 C-52.56550307 206.02201438 -53.89851824 205.3874692 -56 204 C-57.09809194 200.70572419 -57.11196276 199.33588828 -56 196 C-47.31350339 192.28006517 -37.67983685 191.04988983 -28.4375 189.3125 C-26.7440332 188.98949499 -25.05067272 188.66593206 -23.35742188 188.34179688 C-19.23947985 187.55475476 -15.12016904 186.77529549 -11 186 C-11.71027344 185.50628906 -12.42054687 185.01257813 -13.15234375 184.50390625 C-14.07144531 183.86324219 -14.99054688 183.22257813 -15.9375 182.5625 C-17.31228516 181.60537109 -17.31228516 181.60537109 -18.71484375 180.62890625 C-21 179 -21 179 -22 178 C-22.3125 175.125 -22.3125 175.125 -22 172 C-19.28982566 169.49355175 -16.59337641 168.39532056 -13.125 167.25 C-2.89811423 163.20716082 0.76388989 153.55076081 5 144 C7.1065157 139.04146222 9.07608584 134.03177549 11 129 C10.23816406 128.42894531 9.47632812 127.85789062 8.69140625 127.26953125 C-8.38990475 113.85611725 -16.88929856 95.1649783 -19.59375 73.80078125 C-21.8222065 51.37992654 -21.28831909 24.32079389 -13 3 C-9.23750422 -0.84187333 -5.09895677 -0.96640877 0 0 Z " fill="#030201" transform="translate(95,0)"/>
<path d="M0 0 C2.36340325 1.14976374 4.65249413 2.36914011 6.94140625 3.6640625 C15.56360886 8.40353189 24.21534121 11.41177212 33.6875 14.0625 C50.11699962 18.71801113 62.91804562 24.93193234 73.96484375 38.39453125 C75.94910718 40.32003399 75.94910718 40.32003399 78.90625 39.8671875 C81.82115011 39.05013216 84.65415864 38.1562178 87.5 37.125 C94.22791347 34.82685134 101.01689652 33.30217708 108 32 C108.85678345 31.83620346 109.71356689 31.67240692 110.59631348 31.50364685 C117.59145394 30.23963124 124.30526018 29.69253989 131.40625 29.69921875 C132.4516394 29.69493362 133.49702881 29.6906485 134.57409668 29.68623352 C136.77237226 29.68053294 138.97066668 29.67995809 141.16894531 29.68432617 C144.4645358 29.68746621 147.75920874 29.66404066 151.0546875 29.63867188 C171.13074519 29.57769454 191.02976861 31.39085057 209.765625 39.14453125 C212.59031987 40.22601407 215.00306788 40.13939219 218 40 C218.25136719 39.42765625 218.50273437 38.8553125 218.76171875 38.265625 C226.52896944 24.05425151 243.37715406 17.90347 257.97021484 13.58007812 C260.6155241 12.82409367 263.27327673 12.12356608 265.9375 11.4375 C275.14046401 9.03122042 283.56407405 4.30030933 292 0 C292 0.66 292 1.32 292 2 C291.34 2 290.68 2 290 2 C289.73574219 2.58136719 289.47148437 3.16273437 289.19921875 3.76171875 C287.10040228 7.67905372 283.99240426 10.74445999 281 14 C280.19369141 14.90492187 280.19369141 14.90492187 279.37109375 15.828125 C271.93501576 23.78383254 263.13649135 28.09062665 253.0234375 31.75390625 C245.89413203 34.69221173 240.49763056 39.504265 236.75 46.25 C234.89564504 53.04930151 236.06721092 59.35603753 238 66 C236.02 67.32 234.04 68.64 232 70 C232.38712497 78.51674938 236.561158 86.7794343 242.3125 93 C248.58252439 98.62377187 254.79209718 100.4959228 263.12890625 100.140625 C263.74636719 100.09421875 264.36382812 100.0478125 265 100 C265.67801034 97.09926819 265.67801034 97.09926819 266 94 C263.59471675 91.59471675 262.66943086 91.70517984 259.375 91.3125 C252.69603011 90.0770836 248.50809256 86.5283336 244.6171875 81.0546875 C242 76.68050699 242 76.68050699 242 74 C242.969375 73.401875 243.93875 72.80375 244.9375 72.1875 C248.07436861 70.3149262 248.07436861 70.3149262 249.125 67.6875 C248.97341678 64.42846069 247.63339949 62.61095497 245.94921875 59.88671875 C244.27134363 56.55168303 244.09715121 53.60428613 245 50 C248.55365218 43.05095546 255.16268405 40.82392273 262 38 C279.04413706 30.60311847 292.68460545 18.22681631 302 2 C310.5053557 14.75803355 307.71342378 44.23139534 305.08984375 59.0234375 C301.45151745 75.8379887 294.11850982 90.15066875 279.4375 99.875 C278.61121094 100.36742188 277.78492188 100.85984375 276.93359375 101.3671875 C274.39126719 103.51404104 274.29823821 104.71617913 274 108 C274.74505789 110.82865924 274.74505789 110.82865924 276.0625 113.71875 C276.52599854 114.81002197 276.98949707 115.90129395 277.46704102 117.02563477 C277.97291748 118.17217529 278.47879395 119.31871582 279 120.5 C279.51038818 121.67167725 280.02077637 122.84335449 280.54663086 124.05053711 C282.00995976 127.37700017 283.49788711 130.6908978 285 134 C285.52037842 135.15846436 285.52037842 135.15846436 286.05126953 136.34033203 C289.89030974 144.72809788 294.72804052 150.33752854 302 156 C297.24497588 161.38702099 289.80683095 162.14914613 283 163 C282.67 163.33 282.34 163.66 282 164 C280.22521269 164.08846825 278.44688875 164.10689389 276.66992188 164.09765625 C275.53204224 164.09435303 274.3941626 164.0910498 273.22180176 164.08764648 C271.98329468 164.07934814 270.7447876 164.0710498 269.46875 164.0625 C268.20736206 164.05871338 266.94597412 164.05492676 265.6463623 164.05102539 C260.90867393 164.03666654 256.17105888 164.01341091 251.43341064 163.98962402 C246.79936545 163.96683071 242.16533215 163.95141127 237.53125 163.9375 C236.29274292 163.92920166 235.05423584 163.92090332 233.77819824 163.91235352 C232.6403186 163.90905029 231.50243896 163.90574707 230.33007812 163.90234375 C229.32271606 163.89710693 228.315354 163.89187012 227.27746582 163.88647461 C225.03332519 163.74299937 225.03332519 163.74299937 224 165 C223.83333333 168 223.83333333 168 224 171 C225.60799853 172.60799853 227.35059459 172.15709967 229.57641602 172.18945312 C230.55155655 172.20617065 231.52669708 172.22288818 232.53138733 172.2401123 C234.12653419 172.26047546 234.12653419 172.26047546 235.75390625 172.28125 C237.38802711 172.30886414 237.38802711 172.30886414 239.05516052 172.33703613 C242.55755015 172.39599318 246.05999097 172.44865834 249.5625 172.5 C253.04000996 172.55151867 256.51745646 172.60454803 259.99485779 172.66296387 C262.16183605 172.69935874 264.32888444 172.73184953 266.49598694 172.7598877 C281.83622435 173.01705718 281.83622435 173.01705718 285.5390625 176.14453125 C286.22742188 177.02496094 286.91578125 177.90539062 287.625 178.8125 C291.67821842 183.70431534 294.87856392 186.95952131 301 189 C301 189.66 301 190.32 301 191 C298.01847827 192.70187079 295.01438675 194.35718481 292 196 C291.175 196.474375 290.35 196.94875 289.5 197.4375 C283.53241826 198.78020589 277.27214789 195.76228458 271.6875 193.8125 C264.11059273 191.1937719 256.38921206 189.17071972 248.625 187.1875 C247.42447998 186.87337158 246.22395996 186.55924316 244.98706055 186.2355957 C238.4866624 184.60586239 232.70536101 183.52709559 226 184 C224.70366379 185.06645115 224.70366379 185.06645115 224.9375 187.5625 C224.9684375 188.7690625 224.9684375 188.7690625 225 190 C230.68383102 192.06684765 236.36192327 193.60019466 242.25 194.9375 C249.62810991 196.61441731 256.80437832 198.64734456 264 201 C263.835 201.94875 263.67 202.8975 263.5 203.875 C263.51208179 209.84340478 268.06756277 213.9577903 272 218 C274.89076981 220.50325521 277.86659525 222.80951797 281 225 C269.81377044 236.79145467 254.67725166 243.57645954 240 250 C239.22197021 250.34699951 238.44394043 250.69399902 237.64233398 251.05151367 C230.52884199 254.07913589 223.21068543 255.84743422 215.6875 257.5625 C215.03169952 257.71374329 214.37589905 257.86498657 213.70022583 258.02081299 C202.22493598 260.6582781 190.722916 262.81591379 179 264 C178.09942871 264.0928125 177.19885742 264.185625 176.27099609 264.28125 C122.09778094 269.16564873 59.11831241 263.92971263 15 229 C13.83017578 228.18015625 13.83017578 228.18015625 12.63671875 227.34375 C12.09660156 226.9003125 11.55648437 226.456875 11 226 C11 225.34 11 224.68 11 224 C12.99284138 222.6559907 14.99419671 221.32458708 17 220 C19.56249975 217.68767578 19.56249975 217.68767578 22 215 C22.53109375 214.45085937 23.0621875 213.90171875 23.609375 213.3359375 C24.42148438 212.45808594 24.42148438 212.45808594 25.25 211.5625 C25.75015625 211.02753906 26.2503125 210.49257812 26.765625 209.94140625 C28.39825717 207.37362718 28.64656726 204.99155567 29 202 C39.91065127 198.55090055 50.73670197 195.40577892 61.9934082 193.29394531 C65.55542006 192.60916498 67.94238605 192.0384093 71 190 C71.33343551 187.45792029 71.33343551 187.45792029 71 185 C69.82738141 183.60451074 69.82738141 183.60451074 66.54296875 183.81640625 C61.64111514 183.88706948 57.0724166 184.82398405 52.3125 185.9375 C51.38493896 186.14914795 50.45737793 186.3607959 49.50170898 186.57885742 C39.78555889 188.88972985 30.28880879 191.91938522 20.81176758 195.05249023 C19.63767334 195.43348877 18.4635791 195.8144873 17.25390625 196.20703125 C16.21564697 196.5522583 15.1773877 196.89748535 14.10766602 197.25317383 C8.36981798 198.63207847 3.93235282 198.44433031 -1.25 195.625 C-2.49523437 194.96371094 -2.49523437 194.96371094 -3.765625 194.2890625 C-5.55053285 193.25930797 -7.28543314 192.14304457 -9 191 C-9 190.34 -9 189.68 -9 189 C-8.43152344 188.72027344 -7.86304687 188.44054687 -7.27734375 188.15234375 C-0.43574432 184.60019446 4.70644524 180.44033215 9 174 C11.45894658 173.60650633 13.68196572 173.41614389 16.15625 173.34375 C16.90072388 173.31124146 17.64519775 173.27873291 18.41223145 173.24523926 C20.94123044 173.1430796 23.46985584 173.06794207 26 173 C27.36439209 172.96277832 27.36439209 172.96277832 28.75634766 172.92480469 C36.7141518 172.7196714 44.67303612 172.5805121 52.63232422 172.44775391 C55.64038999 172.39633801 58.64830232 172.33910732 61.65625 172.28125 C63.04499329 172.26088684 63.04499329 172.26088684 64.46179199 172.2401123 C68.55728481 172.57094137 68.55728481 172.57094137 72 171 C72.16666667 168 72.16666667 168 72 165 C70.94883462 163.72439197 70.94883462 163.72439197 68.57067871 163.88647461 C67.49225708 163.89171143 66.41383545 163.89694824 65.30273438 163.90234375 C63.47579041 163.90729858 63.47579041 163.90729858 61.61193848 163.91235352 C60.62983147 163.91853195 60.62983147 163.91853195 59.62788391 163.92483521 C57.58601844 163.93754814 55.54421756 163.94410124 53.50231934 163.94897461 C49.16818401 163.96042968 44.83410161 163.97967288 40.5 164 C35.47968427 164.0235455 30.45939894 164.04395669 25.43904114 164.05593872 C23.422007 164.06244914 21.40506492 164.07495751 19.38806152 164.08764648 C17.56111755 164.09260132 17.56111755 164.09260132 15.69726562 164.09765625 C14.61884399 164.10289307 13.54042236 164.10812988 12.42932129 164.11352539 C10 164 10 164 9 163 C7.700625 162.9175 6.40125 162.835 5.0625 162.75 C-0.62959537 162.21007455 -5.08382793 159.78138336 -10 157 C-9.29875 156.319375 -8.5975 155.63875 -7.875 154.9375 C-6.91430074 153.96065453 -5.95611029 152.98133748 -5 152 C-4.31357422 151.32517578 -4.31357422 151.32517578 -3.61328125 150.63671875 C4.76391803 141.75459239 9.39984565 129.46171528 14.0625 118.375 C14.46895752 117.42681396 14.87541504 116.47862793 15.29418945 115.50170898 C15.6624585 114.60137939 16.03072754 113.7010498 16.41015625 112.7734375 C16.74152588 111.97341309 17.07289551 111.17338867 17.41430664 110.34912109 C18.12118686 107.51393917 17.8822388 105.77150389 17 103 C14.73299896 100.90503695 14.73299896 100.90503695 11.875 99.125 C-2.10972796 89.42795707 -9.24331678 76.77054536 -12.57519531 60.12670898 C-13.974401 51.95079971 -14.31286069 43.97077422 -14.25 35.6875 C-14.24468262 34.42309082 -14.23936523 33.15868164 -14.23388672 31.85595703 C-13.99192893 7.9878934 -13.99192893 7.9878934 -10 2 C-9.67128906 2.53367187 -9.34257813 3.06734375 -9.00390625 3.6171875 C-4.92332021 10.00899978 -0.1961068 15.49231007 5 21 C5.57621094 21.64066406 6.15242188 22.28132813 6.74609375 22.94140625 C14.46313532 31.21363066 24.2256628 35.87277158 34.63012695 39.89624023 C40.03534477 42.11399277 43.94817687 44.91060535 47 50 C48.03098772 54.5148517 47.40646698 57.69501435 45 61.625 C42.88275592 65.19784938 42.60408077 66.94182791 43 71 C44.2065625 71.37125 44.2065625 71.37125 45.4375 71.75 C48 73 48 73 49.0625 74.6875 C48.9233353 79.83659382 45.42627068 83.87062865 41.875 87.3125 C38.24727597 90.27920707 34.71849951 90.98873819 30.13671875 91.578125 C27.79419962 91.83463559 27.79419962 91.83463559 26 94 C26.32198966 97.09926819 26.32198966 97.09926819 27 100 C34.81225705 100.74798206 40.5299763 99.54593168 47 95 C53.52816788 89.07962706 58.99360943 82.21681451 59.5625 73.1875 C59.54983577 70.95924294 59.54983577 70.95924294 59 69 C56.66250834 66.84397306 56.66250834 66.84397306 54 66 C54.33 64.865625 54.66 63.73125 55 62.5625 C56.7004489 55.57587298 57.09464505 49.33807153 53.35180664 42.96337891 C48.85750631 36.43580743 42.31168381 33.52309812 35.1875 30.625 C27.48173955 27.31245847 21.078019 23.89184544 15 18 C14.12988281 17.18273437 13.25976562 16.36546875 12.36328125 15.5234375 C7.68017108 10.99757044 3.50719478 6.49460515 0 1 C0 0.67 0 0.34 0 0 Z " fill="#F7BB54" transform="translate(100,20)"/>
<path d="M0 0 C1.875 0 1.875 0 4 1 C6.00565701 3.65454604 7.64819196 6.20843192 9 9.25 C10.30698942 11.53723148 11.64930503 11.83706816 14 13 C15.51211456 14.08751717 17.01113228 15.19336777 18.5 16.3125 C29.99395931 24.36326166 43.63289352 27.37269778 57 31 C56.67644531 31.85851562 56.35289062 32.71703125 56.01953125 33.6015625 C53.8698862 40.76704601 53.83330895 49.32262067 56.96484375 56.2265625 C61.3516019 63.74198967 66.8660708 67.28869027 75 70 C84.49675105 70.86982254 91.61768236 69.41077607 99.3125 63.75 C105.97612517 56.93140681 107.2196345 49.50207489 107.16796875 40.25390625 C106.97327003 36.48218447 106.31028235 33.52138381 105 30 C105.65742188 29.93683594 106.31484375 29.87367188 106.9921875 29.80859375 C124.45756147 27.560341 143.58526814 19.67389754 155 6 C155.495 5.10410156 155.99 4.20820313 156.5 3.28515625 C158 1 158 1 160.1875 0.1875 C160.785625 0.125625 161.38375 0.06375 162 0 C175.07580111 13.45833784 184.36998569 30.85297711 189 49 C189.17660156 49.65105713 189.35320312 50.30211426 189.53515625 50.97290039 C196.60412499 79.09414165 187.43509609 110.83170318 173.08886719 135.19384766 C164.35041333 149.68870901 154.16782588 163.2040584 142 175 C135.14301127 181.36447497 135.14301127 181.36447497 130.9375 189.5 C131.01848079 194.03492438 131.98891902 195.62171403 135 199 C137.00580454 200.38553567 139.06072689 201.62396184 141.1640625 202.85546875 C143.47356868 204.29522473 144.75068338 205.57485597 146 208 C146.6875 211.25 146.6875 211.25 147 214 C144.4263918 216.69745975 142.314827 217.23503702 138.72558594 217.40405273 C136.97868953 217.43059654 135.23146366 217.43932536 133.484375 217.43359375 C132.55457825 217.4388356 131.62478149 217.44407745 130.66680908 217.44947815 C128.69992062 217.45589707 126.73299377 217.45456303 124.76611328 217.44604492 C121.77435777 217.43756901 118.78453403 217.46624269 115.79296875 217.49804688 C113.87760474 217.49966001 111.96223737 217.49907921 110.046875 217.49609375 C109.16014099 217.50732773 108.27340698 217.51856171 107.35980225 217.53013611 C101.51668831 217.4654495 96.81188578 216.47123868 92 213 C84.00467798 203.26939778 85.20332548 188.77285257 86 177 C89.26982157 147.15665389 100.88661967 116.00159657 113.85546875 89.03125 C115.07471192 85.80212816 115.23186114 83.42123986 115 80 C112.03 79.505 112.03 79.505 109 79 C97.17131899 100.54229984 88.21199279 125.30317172 82.60546875 149.234375 C82 151 82 151 80 152 C79.82049805 151.34443115 79.64099609 150.6888623 79.45605469 150.01342773 C75.55747092 135.94478376 71.17050285 122.223187 65.875 108.625 C65.62778198 107.98690399 65.38056396 107.34880798 65.12585449 106.69137573 C62.06454683 98.82072886 58.7546393 91.13847823 55.10595703 83.52490234 C54 81 54 81 54 79 C51.08347826 78.83318891 51.08347826 78.83318891 48 79 C47.34 79.66 46.68 80.32 46 81 C46.35190302 85.06812637 47.43598877 88.41682195 49.1171875 92.11328125 C49.55401855 93.09731934 49.99084961 94.08135742 50.44091797 95.09521484 C50.91416504 96.15691895 51.38741211 97.21862305 51.875 98.3125 C61.28607239 120.00618852 69.19232141 142.82422881 74 166 C74.24234375 167.14210938 74.4846875 168.28421875 74.734375 169.4609375 C77.04586862 182.11167961 78.58284238 198.6952627 71.7109375 210.1484375 C68.42648426 214.45159816 65.29727424 215.94196585 60 217 C56.81481431 217.27246218 53.64855075 217.28082151 50.453125 217.265625 C49.56010681 217.26753845 48.66708862 217.2694519 47.74700928 217.27142334 C45.87121293 217.27277753 43.99540697 217.26913493 42.11962891 217.26074219 C39.24490509 217.24998093 36.37079897 217.26068936 33.49609375 217.2734375 C31.66926945 217.27211676 29.84244554 217.26955614 28.015625 217.265625 C27.15624329 217.26967346 26.29686157 217.27372192 25.41143799 217.27789307 C24.2143924 217.26843658 24.2143924 217.26843658 22.99316406 217.25878906 C22.29257874 217.25719788 21.59199341 217.25560669 20.87017822 217.25396729 C19 217 19 217 16 215 C15.41783619 211.3406846 15.83459659 209.34518973 17.4375 206 C20.29848674 202.65055211 23.20655449 200.70910251 26.9765625 198.4921875 C29.2509009 196.81497269 30.04745421 195.63860277 31 193 C31.11265066 187.14216593 29.08644958 184.33907755 25.26953125 180.265625 C23.63652829 178.63543272 21.98585706 177.02286958 20.32421875 175.421875 C-5.01344168 150.95217695 -27.96882992 114.76564646 -29.203125 78.6015625 C-29.37440807 67.68446292 -28.59993884 57.60411736 -26 47 C-25.75636719 45.94039063 -25.51273438 44.88078125 -25.26171875 43.7890625 C-21.01794236 27.81959117 -11.69574847 11.69574847 0 0 Z " fill="#F7BC54" transform="translate(165,285)"/>
<path d="M0 0 C1.875 0 1.875 0 4 1 C6.00565701 3.65454604 7.64819196 6.20843192 9 9.25 C10.30698942 11.53723148 11.64930503 11.83706816 14 13 C15.51211456 14.08751717 17.01113228 15.19336777 18.5 16.3125 C29.99395931 24.36326166 43.63289352 27.37269778 57 31 C56.67644531 31.85851562 56.35289062 32.71703125 56.01953125 33.6015625 C53.1210822 43.26305932 54.99502827 51.67374372 59.1875 60.5 C59.5896875 61.2425 59.5896875 61.2425 60 62 C59.34 62 58.68 62 58 62 C57.56880859 62.86625 57.56880859 62.86625 57.12890625 63.75 C56.41597685 65.17092503 55.69558512 66.58815251 54.96484375 68 C54.45630859 68.99 54.45630859 68.99 53.9375 70 C53.42509766 70.99 53.42509766 70.99 52.90234375 72 C51.92689289 73.97516303 51.92689289 73.97516303 51.5390625 76.140625 C51 78 51 78 48.4375 79.75 C47.633125 80.1625 46.82875 80.575 46 81 C46.55444913 85.04202987 47.43001641 88.4036905 49.1171875 92.11328125 C49.55401855 93.09731934 49.99084961 94.08135742 50.44091797 95.09521484 C50.91416504 96.15691895 51.38741211 97.21862305 51.875 98.3125 C61.28607239 120.00618852 69.19232141 142.82422881 74 166 C74.24234375 167.14210938 74.4846875 168.28421875 74.734375 169.4609375 C77.04586862 182.11167961 78.58284238 198.6952627 71.7109375 210.1484375 C68.42648426 214.45159816 65.29727424 215.94196585 60 217 C56.81481431 217.27246218 53.64855075 217.28082151 50.453125 217.265625 C49.56010681 217.26753845 48.66708862 217.2694519 47.74700928 217.27142334 C45.87121293 217.27277753 43.99540697 217.26913493 42.11962891 217.26074219 C39.24490509 217.24998093 36.37079897 217.26068936 33.49609375 217.2734375 C31.66926945 217.27211676 29.84244554 217.26955614 28.015625 217.265625 C27.15624329 217.26967346 26.29686157 217.27372192 25.41143799 217.27789307 C24.2143924 217.26843658 24.2143924 217.26843658 22.99316406 217.25878906 C22.29257874 217.25719788 21.59199341 217.25560669 20.87017822 217.25396729 C19 217 19 217 16 215 C15.41783619 211.3406846 15.83459659 209.34518973 17.4375 206 C20.29848674 202.65055211 23.20655449 200.70910251 26.9765625 198.4921875 C29.2509009 196.81497269 30.04745421 195.63860277 31 193 C31.11265066 187.14216593 29.08644958 184.33907755 25.26953125 180.265625 C23.63652829 178.63543272 21.98585706 177.02286958 20.32421875 175.421875 C-5.01344168 150.95217695 -27.96882992 114.76564646 -29.203125 78.6015625 C-29.37440807 67.68446292 -28.59993884 57.60411736 -26 47 C-25.75636719 45.94039063 -25.51273438 44.88078125 -25.26171875 43.7890625 C-21.01794236 27.81959117 -11.69574847 11.69574847 0 0 Z " fill="#F8BC54" transform="translate(165,285)"/>
<path d="M0 0 C0.97453125 0.25523437 0.97453125 0.25523437 1.96875 0.515625 C4.36434932 1.0868833 6.53893207 1.13250326 9 1.125 C9.845625 1.12757813 10.69125 1.13015625 11.5625 1.1328125 C13.86222911 1.00750675 15.78430302 0.59085253 18 0 C24.97188755 -0.66398929 24.97188755 -0.66398929 29 1.9375 C31.74301926 6.13774825 31.97166294 9.11855049 31 14 C27.8580858 22.32483566 23.63371077 28.31567748 16 33 C16.29197902 36.40642186 16.94495397 37.93200196 19.125 40.625 C24.98854753 45.46880013 29.91309271 46.59694469 37.41015625 46.33984375 C41.27320983 45.83292722 43.24878307 44.75121693 46 42 C48.65859263 37.07506612 49.74347435 31.41272587 51 26 C56.4 24.68 56.4 24.68 58.875 26 C61.09407323 29.94501908 60.39847153 33.46914894 59.30859375 37.65625 C56.71013459 45.57122183 53.39136292 51.39472689 45.9375 55.4375 C42.84808284 56.94746054 40.42735935 57.14849911 37 57 C36.87044922 57.87398437 36.87044922 57.87398437 36.73828125 58.765625 C34.56363617 71.45437978 29.83046608 80.66932412 20.4375 89.375 C15.31530151 92.78979899 11.12702047 93.35746134 5.16015625 92.4609375 C-1.8469003 90.96576088 -6.63192538 86.46009327 -11 81 C-14.99468564 74.19462059 -19 65.02093477 -19 57 C-20.155 56.95875 -21.31 56.9175 -22.5 56.875 C-28.5658815 56.09126664 -32.77998413 52.77642492 -36.54296875 48.0703125 C-40.66151501 41.86229849 -42.72285224 35.51766328 -42 28 C-40.875 26 -40.875 26 -39 25 C-35.8125 25.3125 -35.8125 25.3125 -33 26 C-32.81824219 26.72445312 -32.63648438 27.44890625 -32.44921875 28.1953125 C-30.06145415 38.57793583 -30.06145415 38.57793583 -23 46 C-16.4467617 47.03793526 -9.79988631 46.30106908 -4 43 C-0.90123038 40.49461179 0.70393512 39.02483999 1.8125 35.1875 C1.874375 34.465625 1.93625 33.74375 2 33 C1.49210937 32.68289062 0.98421875 32.36578125 0.4609375 32.0390625 C-6.24532108 27.49287223 -10.43144847 21.7056546 -13 14 C-13.50883987 9.54556576 -13.48504243 6.03335126 -11.5625 1.9375 C-7.82981444 -0.88477445 -4.52502162 -0.55766111 0 0 Z " fill="#040301" transform="translate(238,173)"/>
<path d="M0 0 C0.17015625 0.54712646 0.3403125 1.09425293 0.515625 1.65795898 C10.50766099 33.47103367 26.45170908 58.94484381 49.34375 83.1328125 C52.01149716 86.01241017 54.51367533 88.96416155 57 92 C56.48050781 92.36351562 55.96101563 92.72703125 55.42578125 93.1015625 C49.06179648 97.68927795 43.76457192 101.97921853 42 110 C41.95433768 111.39776519 41.94123799 112.79689083 41.95703125 114.1953125 C41.97121094 115.45085937 41.98539062 116.70640625 42 118 C38.06739056 118.07421454 34.13505278 118.12863136 30.2019043 118.16479492 C28.20672299 118.18728333 26.21173787 118.22540198 24.21679688 118.26367188 C22.96318359 118.27333984 21.70957031 118.28300781 20.41796875 118.29296875 C19.26063232 118.3086792 18.1032959 118.32438965 16.91088867 118.34057617 C14 118 14 118 12.09545898 116.66162109 C11 115 11 115 11.0546875 112.12109375 C12.42188991 107.60706596 15.20293865 105.04358604 18.3828125 101.66015625 C20.25749956 99.02245354 20.25749956 99.02245354 20.2890625 95.5390625 C18.38580095 90.31374442 14.97164901 88.91776465 10.25 86.3125 C-5.16948388 77.19205162 -18.46818974 66.09405884 -23.34375 48.16796875 C-25.8121523 36.25205052 -22.43659245 26.40569119 -16.2421875 16.18359375 C-4.84417178 0 -4.84417178 0 0 0 Z " fill="#F7BB54" transform="translate(129,384)"/>
<path d="M0 0 C10.50371383 4.38642677 17.90242543 18.02693495 22.4375 27.9375 C26.11221277 38.02307531 24.22122255 48.37181823 20 58 C11.49835428 72.37003834 -1.52374316 82.53137412 -16.29296875 89.9296875 C-18.32285412 91.03981634 -18.32285412 91.03981634 -20 94 C-20.12225593 100.23505231 -17.62877575 102.80231834 -13.6015625 107.078125 C-11.43443224 109.67868132 -10.84316482 111.62804363 -11 115 C-12.10668945 116.6496582 -12.10668945 116.6496582 -14 118 C-16.91088867 118.34057617 -16.91088867 118.34057617 -20.41796875 118.29296875 C-21.67158203 118.28330078 -22.92519531 118.27363281 -24.21679688 118.26367188 C-26.18229492 118.2259668 -26.18229492 118.2259668 -28.1875 118.1875 C-29.52277163 118.17244967 -30.85805937 118.15876187 -32.19335938 118.14648438 C-35.46264576 118.11107694 -38.73112093 118.0616889 -42 118 C-41.97752197 117.40106934 -41.95504395 116.80213867 -41.93188477 116.18505859 C-41.75663146 110.1560119 -41.75663146 110.1560119 -43.9375 104.625 C-45.24590966 102.34583479 -46.15707794 100.52876619 -47 98 C-48.76591887 96.99083967 -48.76591887 96.99083967 -51 96 C-53.01182457 94.68457624 -55.01399663 93.3540932 -57 92 C-53.7630549 88.09906616 -50.46877937 84.44910645 -46.8125 80.9375 C-40.92133385 75.1056409 -35.96947112 68.61473305 -31 62 C-30.56510254 61.42588379 -30.13020508 60.85176758 -29.68212891 60.26025391 C-15.86512391 41.9161756 -6.35474837 22.02198515 0 0 Z " fill="#F7BB54" transform="translate(363,384)"/>
<path d="M0 0 C8.5053557 12.75803355 5.71342378 42.23139534 3.08984375 57.0234375 C-0.61739795 74.1564817 -8.24062392 87.94348915 -22.625 98.4375 C-27.14303232 101.16245833 -27.14303232 101.16245833 -30.47265625 100.53125 C-32.52321038 99.51863068 -34.23659221 98.45013763 -36 97 C-35.95875 96.21625 -35.9175 95.4325 -35.875 94.625 C-35.71271266 91.83883881 -35.71271266 91.83883881 -38 90 C-39.5328697 89.71792918 -41.07734906 89.49697233 -42.625 89.3125 C-49.30396989 88.0770836 -53.49190744 84.5283336 -57.3828125 79.0546875 C-60 74.68050699 -60 74.68050699 -60 72 C-59.030625 71.401875 -58.06125 70.80375 -57.0625 70.1875 C-53.92563139 68.3149262 -53.92563139 68.3149262 -52.875 65.6875 C-53.02658322 62.42846069 -54.36660051 60.61095497 -56.05078125 57.88671875 C-57.72865637 54.55168303 -57.90284879 51.60428613 -57 48 C-53.44634782 41.05095546 -46.83731595 38.82392273 -40 36 C-22.95586294 28.60311847 -9.31539455 16.22681631 0 0 Z " fill="#F77F7E" transform="translate(402,22)"/>
<path d="M0 0 C1.94023029 2.41356119 3.87040773 4.83086621 5.75390625 7.2890625 C16.91950333 21.71028723 28.66245684 31.33095624 45.63110352 37.8972168 C51.0362715 40.11355441 54.94861755 42.91134027 58 48 C59.03098772 52.5148517 58.40646698 55.69501435 56 59.625 C53.88275592 63.19784938 53.60408077 64.94182791 54 69 C55.2065625 69.37125 55.2065625 69.37125 56.4375 69.75 C59 71 59 71 60.0625 72.6875 C59.9233353 77.83659382 56.42627068 81.87062865 52.875 85.3125 C49.24727597 88.27920707 45.71849951 88.98873819 41.13671875 89.578125 C38.79419962 89.83463559 38.79419962 89.83463559 37 92 C36.83312552 94.58354218 36.83312552 94.58354218 37 97 C34.10217699 99.11791509 31.57861586 100.48876916 28 101 C23.71130975 99.05603301 20.45959699 96.15511046 17 93 C16.32582031 92.42121094 15.65164062 91.84242187 14.95703125 91.24609375 C2.21448413 79.57245787 -2.29102554 61.17939434 -3.18847656 44.49633789 C-3.26689418 40.89086453 -3.27712686 37.29369156 -3.25 33.6875 C-3.24540771 32.42309082 -3.24081543 31.15868164 -3.23608398 29.85595703 C-3.03504629 9.10513886 -3.03504629 9.10513886 0 0 Z " fill="#F77F7F" transform="translate(89,22)"/>
<path d="M0 0 C4.36390596 3.04572799 7.79033048 6.79932476 9.45703125 11.890625 C10.19743605 19.25415331 9.12385361 25.60845207 6.64453125 32.515625 C6.33612305 33.40096924 6.02771484 34.28631348 5.70996094 35.19848633 C-3.29979769 60.37294041 -17.18818925 95.320772 -40.54296875 110.890625 C-41.08566406 110.07078125 -41.62835938 109.2509375 -42.1875 108.40625 C-42.90292969 107.32859375 -43.61835938 106.2509375 -44.35546875 105.140625 C-45.06316406 104.07328125 -45.77085937 103.0059375 -46.5 101.90625 C-48.39727509 98.95279886 -48.39727509 98.95279886 -50.4296875 96.8125 C-51.54296875 94.890625 -51.54296875 94.890625 -50.95703125 92.56640625 C-47.99675139 86.9647717 -47.99675139 86.9647717 -46.9284668 84.98242188 C-37.68769248 67.568061 -31.56159469 47.9822439 -30.10546875 28.3046875 C-30.03054199 27.3264502 -29.95561523 26.34821289 -29.87841797 25.34033203 C-29.74203627 23.42877329 -29.62768042 21.51546445 -29.53955078 19.60107422 C-29.0220093 11.73473046 -26.31127314 6.33095167 -20.60546875 0.890625 C-14.77253194 -2.85729273 -6.21587131 -2.71168579 0 0 Z " fill="#F6BA54" transform="translate(432.54296875,292.109375)"/>
<path d="M0 0 C3.05826084 0.59429086 4.94120638 1.512175 7.375 3.4375 C14.09384201 8.33164597 20.84821903 8.85918514 29 8 C34.42268481 6.42041914 38.80349341 3.79039305 43 0 C47.87021024 2.03531174 49.6916344 5.4174668 52 10 C53.0625 13.25 53.0625 13.25 53 16 C51.66991216 17.33657095 50.33614154 18.6694808 49 20 C47.65568929 22.34026012 47.65568929 22.34026012 46.58984375 24.953125 C45.94885742 26.44767212 45.94885742 26.44767212 45.29492188 27.97241211 C44.84697266 29.05401611 44.39902344 30.13562012 43.9375 31.25 C43.46505859 32.37865479 42.99261719 33.50730957 42.50585938 34.67016602 C38.68114743 43.98121757 35.26563199 53.41740906 32 62.9375 C31.65326736 63.94653381 31.65326736 63.94653381 31.29953003 64.97595215 C28.80822922 72.25994676 26.47768866 79.53542074 24.67578125 87.02563477 C24 89 24 89 22 90 C21.82049805 89.34443115 21.64099609 88.6888623 21.45605469 88.01342773 C17.55747092 73.94478376 13.17050285 60.223187 7.875 46.625 C7.62778198 45.98690399 7.38056396 45.34880798 7.12585449 44.69137573 C4.06454683 36.82072886 0.7546393 29.13847823 -2.89404297 21.52490234 C-4 19 -4 19 -4 17 C-4.99 16.67 -5.98 16.34 -7 16 C-6.71601983 9.32646591 -3.92194468 5.28922815 0 0 Z " fill="#F2D9CC" transform="translate(223,347)"/>
<path d="M0 0 C0.80518066 0.11593506 1.61036133 0.23187012 2.43994141 0.35131836 C5.49978411 0.78947102 8.56022235 1.22314973 11.62109375 1.65405273 C13.56818039 1.92946302 15.51457167 2.20977535 17.4609375 2.49023438 C31.65781 4.48214251 45.68719349 5.20677454 60 5.1875 C60.7655722 5.18722809 61.53114441 5.18695618 62.31991577 5.18667603 C74.97368138 5.16610775 87.43834062 4.61178114 100 3 C101.00562988 2.87157715 102.01125977 2.7431543 103.04736328 2.61083984 C109.37230419 1.79092208 115.68894409 0.92055449 122 0 C112.66332741 10.40959096 94.45776272 15.42829049 81 17 C77.36899463 16.78641145 75.27665351 16.14715612 72.0625 14.4375 C66.18981616 11.78362498 59.26452653 12.33178384 53 13 C50.87882301 13.84564161 50.87882301 13.84564161 49.25 15.0625 C42.67299443 18.98340717 34.89803155 16.10248792 27.8125 14.4375 C22.00798386 12.81390071 16.71072889 10.67405102 11.3125 8 C10.64130127 7.66798584 9.97010254 7.33597168 9.27856445 6.99389648 C5.57241598 5.07066762 2.86608651 3.00252959 0 0 Z " fill="#0296DF" transform="translate(185,290)"/>
<path d="M0 0 C4.63656955 3.4222299 8.3292916 7.61611141 10.625 12.9375 C10.99414086 16.48125229 11.0453453 18.27195327 9.125 21.3125 C8.63 21.84875 8.135 22.385 7.625 22.9375 C2.875 22.1875 2.875 22.1875 0.625 19.9375 C0.1609375 18.2359375 0.1609375 18.2359375 -0.3125 16.5 C-1.33781123 13.06219177 -1.65119438 12.02077598 -4.375 9.9375 C-7.44181402 9.25975104 -10.29513064 9.34607581 -13.375 9.9375 C-16.96768337 13.06958294 -17.98650432 16.47447818 -19.375 20.9375 C-20.035 21.5975 -20.695 22.2575 -21.375 22.9375 C-24.67214793 22.60778521 -25.9976839 22.3148161 -28.375 19.9375 C-29.1452566 14.43566712 -27.89802291 11.23053931 -24.87890625 6.80078125 C-18.2692512 -1.38832384 -10.03291094 -3.158509 0 0 Z " fill="#090603" transform="translate(211.375,144.0625)"/>
<path d="M0 0 C4.72007455 3.48386455 9.30263696 8.06033093 10.625 13.9375 C10.4375 17.625 10.4375 17.625 9.625 20.9375 C6.625 22.9375 6.625 22.9375 4.5625 22.6875 C2.625 21.9375 2.625 21.9375 0.625 19.9375 C0.1609375 18.2359375 0.1609375 18.2359375 -0.3125 16.5 C-1.33781123 13.06219177 -1.65119438 12.02077598 -4.375 9.9375 C-7.44181402 9.25975104 -10.29513064 9.34607581 -13.375 9.9375 C-16.96768337 13.06958294 -17.98650432 16.47447818 -19.375 20.9375 C-20.035 21.5975 -20.695 22.2575 -21.375 22.9375 C-24.67214793 22.60778521 -25.9976839 22.3148161 -28.375 19.9375 C-29.1452566 14.43566712 -27.89802291 11.23053931 -24.87890625 6.80078125 C-18.2692512 -1.38832384 -10.03291094 -3.158509 0 0 Z " fill="#080602" transform="translate(299.375,144.0625)"/>
<path d="M0 0 C2.74722498 1.16228749 4.44429284 2.40296327 6.6875 4.4375 C10.31454055 7.58901595 14.42964575 8.75076984 19 10 C18.69078116 11.45903258 18.37751201 12.91720722 18.0625 14.375 C17.88847656 15.18710938 17.71445312 15.99921875 17.53515625 16.8359375 C17 19 17 19 16 21 C15.505 20.731875 15.01 20.46375 14.5 20.1875 C8.67218965 17.41929008 3.59224181 15.17596977 -3 16 C-5.15666862 16.88663043 -7.16740027 17.89140935 -9.203125 19.02734375 C-11 20 -11 20 -14 21 C-14.50615298 19.73160474 -15.00469099 18.46016898 -15.5 17.1875 C-15.7784375 16.47980469 -16.056875 15.77210938 -16.34375 15.04296875 C-17 13 -17 13 -17 10 C-16.27554688 9.78085938 -15.55109375 9.56171875 -14.8046875 9.3359375 C-8.3444372 7.2169754 -4.38757833 5.21766072 0 0 Z " fill="#4F5358" transform="translate(246,219)"/>
<path d="M0 0 C4.30262779 1.9747135 7.25032351 4.16068195 9.78125 8.2734375 C9.78125 9.2634375 9.78125 10.2534375 9.78125 11.2734375 C-0.77875 11.2734375 -11.33875 11.2734375 -22.21875 11.2734375 C-20.88676571 5.94550032 -18.15285353 3.83146534 -13.96875 0.4609375 C-9.31302704 -1.54948832 -4.82350699 -1.5795287 0 0 Z " fill="#EFDD37" transform="translate(252.21875,312.7265625)"/>
<path d="M0 0 C3.63 0 7.26 0 11 0 C11.33 1.65 11.66 3.3 12 5 C14.87364791 5.41746608 14.87364791 5.41746608 18 5 C18.391875 4.175 18.78375 3.35 19.1875 2.5 C19.785625 1.675 20.38375 0.85 21 0 C24.69554369 -0.46744228 28.29316141 -0.28320499 32 0 C30.02132873 4.5821861 28.12816126 7.18076792 24 10 C23.401875 10.4125 22.80375 10.825 22.1875 11.25 C17.8862963 12.72469841 13.98916426 12.87206114 9.84375 11.0546875 C5.75553824 8.62921858 2.61968872 6.03868678 0 2 C0 1.34 0 0.68 0 0 Z " fill="#F1DF38" transform="translate(230,334)"/>
<path d="M0 0 C1.2065625 0.2475 1.2065625 0.2475 2.4375 0.5 C9.72493473 1.52279786 16.7284982 0.92336531 24 0 C23.21317589 5.84497907 20.2990912 9.13614737 16 13 C13.0625 14.4375 13.0625 14.4375 10 14 C5.67968037 11.13059447 1.92766512 7.90767803 0 3 C0 2.01 0 1.02 0 0 Z " fill="#4E5257" transform="translate(235,183)"/>
<path d="M0 0 C2.26783513 1.48440117 4.02170272 3.11590735 6 5 C5.05275873 7.36810318 4.34708866 8.75207953 2.25 10.25 C-0.74964262 11.24988087 -2.84689983 11.37837202 -6 11 C-9.375 9 -9.375 9 -12 7 C-9.63070063 1.2741932 -6.23987004 -0.99837921 0 0 Z " fill="#F35C57" transform="translate(250,244)"/>
</svg>
